<svg width="64" height="64" viewBox="0 0 64 64" fill="none" xmlns="http://www.w3.org/2000/svg">
  <rect x="2" y="2" width="60" height="60" rx="18" fill="#F7FEFD"/>
  <path d="M11 49V22C11 15.5 20 13 24 17L32 25L40 17C44 13 53 15.5 53 22V49" stroke="#45515C" stroke-width="3.2" stroke-linecap="round" stroke-linejoin="round"/>
  <rect x="27.5" y="8.5" width="9" height="15" rx="3.5" fill="#1DB7B4"/>
  <path d="M32 27C32 27 29.5 30.2 29.5 32.6C29.5 34.2 30.7 35.5 32 35.5C33.3 35.5 34.5 34.2 34.5 32.6C34.5 30.2 32 27 32 27Z" fill="#1DB7B4"/>
  <path d="M32 38.5C32 38.5 29.2 42.3 29.2 45.2C29.2 47.2 30.5 48.8 32 48.8C33.5 48.8 34.8 47.2 34.8 45.2C34.8 42.3 32 38.5 32 38.5Z" fill="#1DB7B4"/>
</svg>
